{"title":"Hariyali Aur Rasta 1962 [2CD-DVDRIP-XVID-AC3] DADA","uid":8391573,"size":1466732729,"categoryP":"video","categoryS":"movies","magnet":"?xt=urn:btih:3bf15e1429177fcdb2be22414bf220cd6f7b6d78&amp;dn=Hariyali+Aur+Rasta+1962+%5B2CD-DVDRIP-XVID-AC3%5D+DADA&amp;tr=udp%3A%2F%2Ftracker.openbittorrent.com%3A80&amp;tr=udp%3A%2F%2Fopen.demonii.com%3A1337&amp;tr=udp%3A%2F%2Ftracker.coppersurfer.tk%3A6969&amp;tr=udp%3A%2F%2Fexodus.desync.com%3A6969","seeders":0,"leechers":2,"uploader":"Bclassics","files":2,"time":1366444010,"description":"Click To Enlarge \n\n\n-: Cover :-\n\n\n    &lt;a href=&quot;\thttp://desibbrg.org/images/54016911716402709635.jpg&quot; rel=&quot;nofollow&quot; target=&quot;_NEW&quot;&gt;\thttp://desibbrg.org/images/54016911716402709635.jpg&lt;/a&gt;\n\n\n-: Screens :-\n\n\n    &lt;a href=&quot;\thttp://desibbrg.org/images/26650845491634879062.jpg&quot; rel=&quot;nofollow&quot; target=&quot;_NEW&quot;&gt;\thttp://desibbrg.org/images/26650845491634879062.jpg&lt;/a&gt;\n    &lt;a href=&quot;\thttp://desibbrg.org/images/95769485769865560850.jpg&quot; rel=&quot;nofollow&quot; target=&quot;_NEW&quot;&gt;\thttp://desibbrg.org/images/95769485769865560850.jpg&lt;/a&gt;\n    &lt;a href=&quot;\thttp://desibbrg.org/images/10965542630909388056.jpg&quot; rel=&quot;nofollow&quot; target=&quot;_NEW&quot;&gt;\thttp://desibbrg.org/images/10965542630909388056.jpg&lt;/a&gt;\n    &lt;a href=&quot;\thttp://desibbrg.org/images/08438319532718648257.jpg&quot; rel=&quot;nofollow&quot; target=&quot;_NEW&quot;&gt;\thttp://desibbrg.org/images/08438319532718648257.jpg&lt;/a&gt;\n    &lt;a href=&quot;\thttp://desibbrg.org/images/22863201010138175099.jpg&quot; rel=&quot;nofollow&quot; target=&quot;_NEW&quot;&gt;\thttp://desibbrg.org/images/22863201010138175099.jpg&lt;/a&gt;\n    &lt;a href=&quot;\thttp://desibbrg.org/images/39440477357015244327.jpg&quot; rel=&quot;nofollow&quot; target=&quot;_NEW&quot;&gt;\thttp://desibbrg.org/images/39440477357015244327.jpg&lt;/a&gt;\n    &lt;a href=&quot;\thttp://desibbrg.org/images/43358118576561936301.jpg&quot; rel=&quot;nofollow&quot; target=&quot;_NEW&quot;&gt;\thttp://desibbrg.org/images/43358118576561936301.jpg&lt;/a&gt;\n    &lt;a href=&quot;\thttp://desibbrg.org/images/09611946939749875280.jpg&quot; rel=&quot;nofollow&quot; target=&quot;_NEW&quot;&gt;\thttp://desibbrg.org/images/09611946939749875280.jpg&lt;/a&gt;\n    &lt;a href=&quot;\thttp://desibbrg.org/images/14985620390916775219.jpg&quot; rel=&quot;nofollow&quot; target=&quot;_NEW&quot;&gt;\thttp://desibbrg.org/images/14985620390916775219.jpg&lt;/a&gt;\n\n  \n\n\n\n\n-: Info :-\n\nGeneral\n\nFormat                           : AVI\nFormat/Info                      : Audio Video Interleave\nFile size                        : 1.37 GiB\nDuration                         : 2h 39mn\nOverall bit rate                 : 1 225 Kbps\nWriting application              : VirtualDubMod 1.5.4.1 (build 2178/release)\nWriting library                  : VirtualDubMod build 2178/release\n\nVideo\nID                               : 0\nFormat                           : MPEG-4 Visual\nFormat profile                   : Advanced Simple@L5\nFormat settings, BVOP            : Yes\nFormat settings, QPel            : No\nFormat settings, GMC             : No warppoints\nFormat settings, Matrix          : Custom\nCodec ID                         : XVID\nCodec ID/Hint                    : XviD\nDuration                         : 2h 39mn\nBit rate                         : 769 Kbps\nWidth                            : 672 pixels\nHeight                           : 512 pixels\nDisplay aspect ratio             : 4:3\nFrame rate                       : 29.970 fps\nColor space                      : YUV\nChroma subsampling               : 4:2:0\nBit depth                        : 8 bits\nScan type                        : Progressive\nBits/(Pixel*Frame)               : 0.075\nStream size                      : 878 MiB (63%)\nWriting library                  : XviD 1.2.1 (UTC 2008-12-04)\n\nAudio\nID                               : 1\nFormat                           : AC-3\nFormat/Info                      : Audio Coding 3\nMode extension                   : CM (complete main)\nCodec ID                         : 2000\nDuration                         : 2h 39mn\nBit rate mode                    : Constant\nBit rate                         : 448 Kbps\nChannel(s)                       : 2 channels\nChannel positions                : Front: L R\nSampling rate                    : 48.0 KHz\nBit depth                        : 16 bits\nStream size                      : 511 MiB (37%)\nAlignment                        : Aligned on interleaves\nInterleave, duration             : 96 ms (2.88 video frames)\nInterleave, preload duration     : 96 ms\nLanguage                         : Hindi\n\n\nRipper - sunnyc_1994 \n\n &lt;a href=&quot;\nhttp://www.imdb.com/title/tt0156593/&quot; rel=&quot;nofollow&quot; target=&quot;_NEW&quot;&gt;\nhttp://www.imdb.com/title/tt0156593/&lt;/a&gt;\n\nDirected by\nVijay Bhatt\t \t\n \nWriting credits\n(in alphabetical order)\nDhruva Chatterjee\t \tscreenplay (as Dhruva Chatterji)\nDhruva Chatterjee\t \tstory (as Dhruva Chatterji)\nQamar Jalalabadi\t \tdialogue\nMoosa Kaleem\t \tdialogue director\n\nCast (in credits order) complete, awaiting verification\n\tMala Sinha\t... \tShobna / Kamla\n\tManoj Kumar\t... \tShanker\n\tShashikala\t... \tRita\n\tOm Prakash\t... \tJoseph\n\tHelen\t... \tDancer Dolly\n\tManmohan Krishna\t... \tShivnath\n\tJagdeep\t\t\n\tSurendra\t\t\n\tKrishna Kumari\t\t\n\nShanker and Rita's marriage is finalized by their elders in their childhoods, however, after growing up, Shanker loves Shobna. Shanker is told to marry Rita instead, and he does so. The marriage is rocky as Rita does not pay attention to her husband and son. Then Shobna re-enters their life. Memorable songs too: &quot;Ilfizaye ishq me hum sari raat jaghe, allah jaane kya hoga aage, oh mollah jaane kya hoga aage...&quot;; &quot;Ye hariyali aur ye raasta, ein rahon par tera mera jivan bar ka vasta...&quot;; &quot;Bol meri taqdeer me kya hai mere humsafar ab to bata jivan ke do pehlu hain, hariyali aur raasta...&quot;; &quot;Kho gaya hai mera pyar, dhundta hoon main mera pyar...&quot;; &quot;Teri yaad dil se bhulane chala hoon, ke khud apni hasti mitane chala hoon...&quot;; &quot;Lakhon tare aasman me ek magar dhundhe na mila, dekke duniya ki diwali dil mera chup chap jala...&quot;\n\n\n","torrent":{"xt":"urn:btih:3bf15e1429177fcdb2be22414bf220cd6f7b6d78","amp;dn":"Hariyali+Aur+Rasta+1962+%5B2CD-DVDRIP-XVID-AC3%5D+DADA","amp;tr":["udp%3A%2F%2Ftracker.openbittorrent.com%3A80","udp%3A%2F%2Fopen.demonii.com%3A1337","udp%3A%2F%2Ftracker.coppersurfer.tk%3A6969","udp%3A%2F%2Fexodus.desync.com%3A6969"],"infoHash":"3bf15e1429177fcdb2be22414bf220cd6f7b6d78","infoHashBuffer":{"type":"Buffer","data":[59,241,94,20,41,23,127,205,178,190,34,65,75,242,32,205,111,123,109,120]},"announce":[],"urlList":[]}}